<svg width="170" height="173" viewBox="0 0 170 173" fill="none" xmlns="http://www.w3.org/2000/svg">
<circle cx="79.5" cy="77.5" r="53" stroke="black"/>
<circle cx="85.5" cy="69.5" r="53" stroke="black"/>
<circle cx="63.5" cy="61.5" r="53" stroke="black"/>
<circle cx="79.5" cy="53.5" r="53" stroke="black"/>
<circle cx="90.5" cy="80.5" r="53" stroke="black"/>
<path d="M2.04 168V151.992H4.008L13.992 166.08L13.56 166.752V151.992H15.288V168H13.344L2.976 153.384L3.768 152.64V168H2.04ZM24.2803 168V151.992H34.3843V153.624H26.0083V159.144H33.3763V160.824H26.0083V166.368H34.3843V168H24.2803ZM47.6816 168.24C46.8816 168.24 46.2016 168.184 45.6416 168.072C45.0816 167.96 44.5776 167.8 44.1296 167.592C43.6816 167.384 43.1936 167.144 42.6656 166.872V165C43.1776 165.432 43.8656 165.816 44.7296 166.152C45.5936 166.488 46.6016 166.656 47.7536 166.656C48.9696 166.656 49.8496 166.4 50.3936 165.888C50.9536 165.36 51.2336 164.696 51.2336 163.896C51.2336 163.224 51.0496 162.688 50.6816 162.288C50.3136 161.872 49.8416 161.536 49.2656 161.28C48.6896 161.008 48.0816 160.752 47.4416 160.512C46.8976 160.32 46.3536 160.12 45.8096 159.912C45.2816 159.688 44.8016 159.416 44.3696 159.096C43.9376 158.76 43.5936 158.336 43.3376 157.824C43.0816 157.296 42.9536 156.64 42.9536 155.856C42.9536 155.424 43.0336 154.968 43.1936 154.488C43.3696 154.008 43.6416 153.56 44.0096 153.144C44.3936 152.728 44.8976 152.392 45.5216 152.136C46.1616 151.88 46.9376 151.752 47.8496 151.752C48.4736 151.752 49.0016 151.8 49.4336 151.896C49.8816 151.976 50.3056 152.104 50.7056 152.28C51.1056 152.44 51.5536 152.64 52.0496 152.88V154.656C51.6336 154.416 51.2336 154.2 50.8496 154.008C50.4816 153.8 50.0656 153.64 49.6016 153.528C49.1536 153.4 48.6016 153.336 47.9456 153.336C47.1616 153.336 46.5296 153.448 46.0496 153.672C45.5856 153.896 45.2416 154.192 45.0176 154.56C44.8096 154.928 44.7056 155.32 44.7056 155.736C44.7056 156.392 44.8496 156.912 45.1376 157.296C45.4416 157.68 45.8576 158 46.3856 158.256C46.9296 158.496 47.5536 158.736 48.2576 158.976C48.8176 159.168 49.3776 159.384 49.9376 159.624C50.4976 159.848 51.0016 160.136 51.4496 160.488C51.9136 160.824 52.2816 161.256 52.5536 161.784C52.8416 162.296 52.9856 162.936 52.9856 163.704C52.9856 164.424 52.8256 165.136 52.5056 165.84C52.1856 166.528 51.6416 167.104 50.8736 167.568C50.1056 168.016 49.0416 168.24 47.6816 168.24ZM65.4821 168V153.624H59.8181V151.992H72.8501V153.624H67.2101V168H65.4821ZM96.7072 168.24C95.9072 168.24 95.2272 168.184 94.6672 168.072C94.1072 167.96 93.6032 167.8 93.1552 167.592C92.7072 167.384 92.2192 167.144 91.6912 166.872V165C92.2032 165.432 92.8912 165.816 93.7552 166.152C94.6192 166.488 95.6272 166.656 96.7792 166.656C97.9952 166.656 98.8752 166.4 99.4192 165.888C99.9792 165.36 100.259 164.696 100.259 163.896C100.259 163.224 100.075 162.688 99.7072 162.288C99.3392 161.872 98.8672 161.536 98.2912 161.28C97.7152 161.008 97.1072 160.752 96.4672 160.512C95.9232 160.32 95.3792 160.12 94.8352 159.912C94.3072 159.688 93.8272 159.416 93.3952 159.096C92.9632 158.76 92.6192 158.336 92.3632 157.824C92.1072 157.296 91.9792 156.64 91.9792 155.856C91.9792 155.424 92.0592 154.968 92.2192 154.488C92.3952 154.008 92.6672 153.56 93.0352 153.144C93.4192 152.728 93.9232 152.392 94.5472 152.136C95.1872 151.88 95.9632 151.752 96.8752 151.752C97.4992 151.752 98.0272 151.8 98.4592 151.896C98.9072 151.976 99.3312 152.104 99.7312 152.28C100.131 152.44 100.579 152.64 101.075 152.88V154.656C100.659 154.416 100.259 154.2 99.8752 154.008C99.5072 153.8 99.0912 153.64 98.6272 153.528C98.1792 153.4 97.6272 153.336 96.9712 153.336C96.1872 153.336 95.5552 153.448 95.0752 153.672C94.6112 153.896 94.2672 154.192 94.0432 154.56C93.8352 154.928 93.7312 155.32 93.7312 155.736C93.7312 156.392 93.8752 156.912 94.1632 157.296C94.4672 157.68 94.8832 158 95.4112 158.256C95.9552 158.496 96.5792 158.736 97.2832 158.976C97.8432 159.168 98.4032 159.384 98.9632 159.624C99.5232 159.848 100.027 160.136 100.475 160.488C100.939 160.824 101.307 161.256 101.579 161.784C101.867 162.296 102.011 162.936 102.011 163.704C102.011 164.424 101.851 165.136 101.531 165.84C101.211 166.528 100.667 167.104 99.8992 167.568C99.1312 168.016 98.0672 168.24 96.7072 168.24ZM116.98 168.24C115.396 168.24 114.068 167.936 112.996 167.328C111.94 166.704 111.14 165.784 110.596 164.568C110.068 163.352 109.804 161.832 109.804 160.008C109.804 157.288 110.404 155.24 111.604 153.864C112.82 152.472 114.612 151.776 116.98 151.776C118.58 151.776 119.908 152.088 120.964 152.712C122.036 153.32 122.836 154.232 123.364 155.448C123.908 156.664 124.18 158.184 124.18 160.008C124.18 162.728 123.572 164.784 122.356 166.176C121.156 167.552 119.364 168.24 116.98 168.24ZM116.98 166.608C118.244 166.608 119.276 166.376 120.076 165.912C120.876 165.448 121.46 164.728 121.828 163.752C122.212 162.776 122.404 161.528 122.404 160.008C122.404 158.488 122.212 157.248 121.828 156.288C121.46 155.312 120.876 154.592 120.076 154.128C119.276 153.648 118.244 153.408 116.98 153.408C115.732 153.408 114.708 153.648 113.908 154.128C113.108 154.592 112.516 155.312 112.132 156.288C111.764 157.248 111.58 158.488 111.58 160.008C111.58 161.528 111.764 162.776 112.132 163.752C112.516 164.728 113.108 165.448 113.908 165.912C114.708 166.376 115.732 166.608 116.98 166.608ZM132.574 168V151.992H134.542L144.526 166.08L144.094 166.752V151.992H145.822V168H143.878L133.51 153.384L134.302 152.64V168H132.574ZM161.63 168.24C159.998 168.24 158.63 167.936 157.526 167.328C156.422 166.704 155.59 165.784 155.03 164.568C154.486 163.336 154.214 161.808 154.214 159.984C154.214 158.16 154.486 156.64 155.03 155.424C155.59 154.208 156.422 153.296 157.526 152.688C158.63 152.08 159.998 151.776 161.63 151.776C162.51 151.776 163.374 151.864 164.222 152.04C165.07 152.216 165.886 152.488 166.67 152.856V154.656C165.918 154.32 165.134 154.032 164.318 153.792C163.502 153.536 162.67 153.408 161.822 153.408C160.478 153.408 159.366 153.648 158.486 154.128C157.622 154.592 156.982 155.312 156.566 156.288C156.15 157.248 155.942 158.48 155.942 159.984C155.942 161.488 156.15 162.728 156.566 163.704C156.982 164.68 157.622 165.408 158.486 165.888C159.366 166.352 160.478 166.584 161.822 166.584C162.462 166.584 163.086 166.536 163.694 166.44C164.302 166.344 164.902 166.2 165.494 166.008V161.448H161.63V159.768H167.222V166.992C166.342 167.408 165.438 167.72 164.51 167.928C163.582 168.136 162.622 168.24 161.63 168.24Z" fill="black"/>
</svg>
