<svg width="26" height="26" viewBox="0 0 26 26" fill="none" xmlns="http://www.w3.org/2000/svg">
<path d="M2.79499 20.5942L2.77333 20.6159C2.48083 19.9767 2.29666 19.2509 2.22083 18.4492C2.29666 19.2401 2.50249 19.9551 2.79499 20.5942Z" fill="#292D32"/>
<path d="M9.75003 11.2446C11.174 11.2446 12.3284 10.0902 12.3284 8.66622C12.3284 7.24225 11.174 6.08789 9.75003 6.08789C8.32605 6.08789 7.17169 7.24225 7.17169 8.66622C7.17169 10.0902 8.32605 11.2446 9.75003 11.2446Z" fill="#292D32"/>
<path d="M17.5392 2.16699H8.46085C4.51752 2.16699 2.16669 4.51783 2.16669 8.46116V17.5395C2.16669 18.7203 2.37252 19.7495 2.77335 20.6162C3.70502 22.6745 5.69835 23.8337 8.46085 23.8337H17.5392C21.4825 23.8337 23.8334 21.4828 23.8334 17.5395V15.0587V8.46116C23.8334 4.51783 21.4825 2.16699 17.5392 2.16699ZM22.0675 13.542C21.2225 12.8162 19.8575 12.8162 19.0125 13.542L14.5059 17.4095C13.6609 18.1353 12.2959 18.1353 11.4509 17.4095L11.0825 17.1062C10.3134 16.4345 9.08919 16.3695 8.22252 16.9545L4.17085 19.6737C3.93252 19.067 3.79169 18.3628 3.79169 17.5395V8.46116C3.79169 5.40616 5.40585 3.79199 8.46085 3.79199H17.5392C20.5942 3.79199 22.2084 5.40616 22.2084 8.46116V13.6612L22.0675 13.542Z" fill="#292D32"/>
</svg>
