<svg width="254" height="47" viewBox="0 0 254 47" fill="none" xmlns="http://www.w3.org/2000/svg">
<path fill-rule="evenodd" clip-rule="evenodd" d="M94.1685 18.2283C92.6209 18.5544 91.0823 18.9007 89.5527 19.2686C88.996 19.4024 88.6563 19.9575 88.7924 20.5077L88.7996 20.5294C80.5137 20.661 72.2297 20.8708 63.9497 21.161C51.9886 21.5806 39.9521 22.2808 28.0328 23.3771C16.2538 24.4605 12.9995 24.7388 2.86654 26.5626C2.57676 26.6147 2.0176 26.6108 1.71689 26.6936C1.43092 26.7723 1.22632 26.9097 1.09498 27.0444C0.926757 27.2151 0.830127 27.4117 0.78936 27.6271C0.746237 27.8617 0.759534 28.1485 0.963558 28.4691C1.53913 29.369 2.46808 29.617 3.60045 29.4288C4.57476 29.2667 5.75218 28.6895 6.67523 28.6245C22.0414 27.5442 37.3971 26.3442 52.7649 25.2859C76.2913 23.6659 99.7476 22.9169 123.208 22.4802C147.873 22.7234 172.527 23.635 197.139 25.1637C213.168 26.1586 229.164 27.6267 245.173 28.9133C245.161 28.983 245.159 29.0557 245.163 29.1299C245.198 29.6951 245.693 30.1264 246.264 30.0926C246.843 30.0584 252.01 29.9189 252.963 29.6878C253.508 29.5553 253.721 29.2224 253.791 29.0799C253.983 28.6889 253.994 28.2638 253.565 27.8578C253.48 27.7799 253.322 27.6512 253.032 27.5688C252.784 27.4965 252.17 27.4048 251.053 27.3197C233.123 25.9381 215.215 24.2313 197.264 23.1154C189.251 22.6188 181.232 22.1858 173.208 21.8221C184.098 21.6946 194.993 21.5482 205.906 21.3281C206.376 21.32 206.604 21.2447 206.646 21.227C207.244 20.9718 207.285 20.5037 207.274 20.2384C207.27 20.1437 207.189 19.362 206.31 19.2513C205.795 19.1862 202.078 19.0566 200.648 18.98C193.776 18.6059 193.936 18.6637 186.906 18.3395C171.447 17.6287 156.011 17.1502 140.534 16.7601C134.363 16.6048 128.192 16.4785 122.02 16.3842C139.806 14.9065 157.961 14.9879 175.263 14.8228C184.188 14.7378 193.116 14.7078 202.041 14.8316C206.039 14.8872 210.035 15.009 214.032 15.0844C215.274 15.1077 216.513 15.1596 217.753 15.1903C217.9 15.1937 219.825 15.2115 220.14 15.2051C220.967 15.1882 221.157 14.4604 221.164 14.4312C221.199 14.2942 221.335 13.3147 220.308 13.1624C205.465 10.9617 189.907 11.4561 174.917 11.0837C148.681 10.4318 122.375 10.5366 96.1413 11.3132C84.5379 11.6566 72.9722 12.3872 61.3854 13.1139C55.5986 13.477 49.7965 13.8621 44.0655 14.7576C43.4905 14.8476 42.1873 14.9393 41.5553 15.046C41.2337 15.1005 41.0047 15.1868 40.8998 15.2458C40.4405 15.5016 40.3494 15.8786 40.3423 16.143C40.3379 16.3411 40.3812 17.0388 41.3284 17.253C54.8625 20.3176 69.8758 18.3707 83.6159 18.2706C87.1332 18.2449 90.6495 18.231 94.1685 18.2283ZM105.626 18.2592C101.551 18.8705 97.5165 19.5973 93.5391 20.463C103.431 20.3415 113.324 20.3313 123.22 20.4291C139.546 20.1252 155.872 19.9721 172.218 19.782C161.648 19.386 151.076 19.0776 140.486 18.8109C128.87 18.5182 117.248 18.3293 105.626 18.2592ZM162.19 12.8782C140.199 12.5345 118.179 12.713 96.2097 13.3635C84.627 13.7064 73.0857 14.4358 61.5215 15.1612C56.9711 15.4467 52.4083 15.7443 47.8814 16.3C59.5807 17.7373 72.0437 16.3034 83.5963 16.2194C90.8924 16.1662 98.1922 16.1631 105.49 16.2069C124.042 13.4441 143.425 13.0452 162.19 12.8782Z" fill="#E52835"/>
</svg>
