<svg width="268" height="25" viewBox="0 0 268 25" fill="none" xmlns="http://www.w3.org/2000/svg">
<path fill-rule="evenodd" clip-rule="evenodd" d="M88.8476 2.15135C59.294 1.64669 29.6198 3.491 1.01419 11.2353C0.503818 11.3729 0.291945 11.6436 0.250187 11.7055C0.00582745 12.0726 -0.0205097 12.4625 0.0104219 12.7837C0.0289809 12.9787 0.154308 13.8022 0.839444 13.887C1.3127 13.9444 4.67182 13.543 5.96786 13.4397C12.0691 12.9557 18.1581 12.2653 24.2439 11.467C38.0425 9.66394 51.8225 8.10408 65.6427 6.68415C73.4019 5.88586 81.1642 5.22519 88.9218 4.68382C107.584 5.00727 126.201 6.26894 144.469 7.57189C137.208 8.23484 130.536 8.90695 125.004 9.34279C115.675 10.0768 106.363 10.9439 97.0523 12.0863C92.2687 12.6713 87.4912 13.3067 82.7169 14.0568C82.188 14.1417 80.9832 14.2288 80.4002 14.3321C80.1527 14.3734 79.9733 14.4399 79.8929 14.4858C79.3887 14.7748 79.3253 15.3666 79.3191 15.6648C79.3161 15.846 79.3578 16.8347 80.2084 17.0274C119.759 26.0701 161.022 15.5501 200.715 24.3405C201.18 24.4437 201.617 23.9665 201.686 23.2738C201.756 22.5833 201.434 21.9364 200.967 21.8332C163.583 13.5544 124.806 22.4067 87.3738 15.908C90.6448 15.4377 93.9173 15.0134 97.193 14.6119C106.486 13.4718 115.781 12.6071 125.095 11.873C134.467 11.1366 147.137 9.69835 160.399 8.79225C171.78 9.73275 183.155 10.788 194.538 11.6826C199.34 12.0588 204.144 12.3708 208.944 12.7539C210.918 12.9098 215.995 13.5636 216.731 13.3204C217.304 13.13 217.441 12.5222 217.475 12.2171C217.511 11.8868 217.489 11.4761 217.229 11.0839C217.149 10.96 216.908 10.7031 216.413 10.492C203.027 4.80542 181.109 4.89487 160.581 6.26893C156.166 5.9019 151.75 5.55323 147.333 5.23896C137.222 4.51638 126.999 3.79149 116.717 3.2203C145.692 2.15821 174.681 2.46332 203.678 3.23178C215.853 3.55522 248.67 5.50507 261.595 7.2278C261.437 7.46867 261.344 7.80357 261.355 8.16831C261.376 8.86566 261.777 9.40703 262.249 9.37491C264.915 9.1914 266.457 8.95742 267.068 8.71656C267.448 8.56745 267.656 8.32888 267.751 8.1729C267.987 7.79669 268.03 7.39295 267.983 7.00986C267.954 6.7713 267.881 6.50979 267.714 6.26893C267.603 6.10377 267.331 5.85145 266.867 5.67941C261.786 3.80527 218.205 1.08237 203.709 0.696987C165.402 -0.316927 127.11 -0.52336 88.8476 2.15135ZM206.051 9.99196C198.565 8.48486 189.79 7.95496 180.636 7.98937C185.299 8.39081 189.963 8.78308 194.629 9.15011C198.435 9.45061 202.243 9.70752 206.051 9.99196ZM53.5423 5.42478C43.7215 6.49834 33.9115 7.65906 24.0938 8.94365C22.9602 9.09046 21.8281 9.23498 20.6944 9.37721C31.5514 7.40443 42.5214 6.14966 53.5423 5.42478Z" fill="#E52835"/>
</svg>
